<mxfile host="app.diagrams.net" modified="2025-03-04T07:07:42.439Z" agent="Mozilla/5.0 (Macintosh; Intel Mac OS X 10_15_7) AppleWebKit/537.36 (KHTML, like Gecko) Chrome/133.0.0.0 Safari/537.36" version="24.3.1" etag="enfrpDSJqr3FzNVxn4v3" type="github">
  <diagram name="第 1 页" id="Xbntmw1GvHBauFsnhigp">
    <mxGraphModel>
      <root>
        <mxCell id="0" />
        <mxCell id="1" parent="0" />
      </root>
    </mxGraphModel>
  </diagram>
</mxfile>
